<?xml version="1.0" standalone="no"?>
<!DOCTYPE svg PUBLIC "-//W3C//DTD SVG 20010904//EN"
 "http://www.w3.org/TR/2001/REC-SVG-20010904/DTD/svg10.dtd">
<svg version="1.0" xmlns="http://www.w3.org/2000/svg"
 width="1024.000000pt" height="1024.000000pt" viewBox="0 0 1024.000000 1024.000000"
 preserveAspectRatio="xMidYMid meet">

<g transform="translate(0.000000,1024.000000) scale(0.100000,-0.100000)"
fill="#000000" stroke="none">
<path d="M0 5120 l0 -5120 5120 0 5120 0 0 5120 0 5120 -5120 0 -5120 0 0
-5120z m5400 3764 c323 -37 682 -148 925 -285 89 -50 63 -42 -55 17 -556 277
-1195 346 -1797 194 -132 -33 -165 -34 -46 -1 110 30 313 70 413 80 143 14
415 12 560 -5z m-123 -34 c3 -10 2 -11 -4 -4 -4 7 -17 14 -28 17 -16 5 -15 5
4 4 14 -1 26 -9 28 -17z m150 4 c-3 -3 -12 -4 -19 -1 -8 3 -5 6 6 6 11 1 17
-2 13 -5z m113 -31 c0 -14 -2 -15 -9 -4 -7 11 -9 11 -14 0 -4 -10 -6 -9 -6 4
-1 9 6 17 14 17 8 0 15 -8 15 -17z m63 4 c4 3 7 1 7 -6 0 -7 5 -9 10 -6 6 3
10 1 10 -6 0 -6 8 -9 20 -6 13 3 20 0 20 -10 0 -11 -5 -13 -17 -8 -10 4 -26 7
-36 7 -9 0 -15 3 -12 9 4 5 -2 9 -13 9 -10 0 -19 7 -19 15 0 10 4 12 12 5 7
-5 15 -7 18 -3z m-163 -21 c52 -8 123 -20 158 -26 60 -12 64 -12 83 9 22 23
43 28 37 9 -3 -7 -10 -13 -16 -13 -6 0 -16 -5 -22 -11 -9 -9 -2 -13 24 -18 20
-4 41 -4 48 0 6 4 8 3 5 -2 -3 -6 42 -25 101 -43 130 -41 307 -116 422 -178
160 -88 412 -270 475 -344 11 -13 0 -6 -25 16 -376 335 -876 550 -1400 600
-182 18 -258 18 -441 0 -385 -37 -767 -167 -1063 -360 -14 -10 -26 -15 -26
-12 0 12 152 99 280 161 270 130 546 202 875 230 90 7 388 -4 485 -18z m322
-21 c0 -5 -5 -11 -11 -13 -6 -2 -11 4 -11 13 0 9 5 15 11 13 6 -2 11 -8 11
-13z m-1423 -10 c-3 -2 -45 -18 -94 -35 -50 -18 -150 -60 -222 -95 -73 -35
-133 -62 -133 -59 0 2 42 25 93 50 141 71 382 166 356 139z m-459 -200 c0 -2
-13 -11 -30 -20 -38 -19 -40 -11 -2 9 31 17 32 18 32 11z m2650 -101 c52 -35
127 -88 165 -119 83 -66 275 -243 275 -254 0 -4 -39 31 -87 77 -111 108 -241
212 -365 293 -134 89 -139 92 -108 78 14 -7 68 -40 120 -75z m-2739 47 c-31
-23 -90 -57 -76 -44 13 14 88 63 95 63 3 0 -6 -9 -19 -19z m-91 -55 c0 -3 -15
-14 -32 -26 l-33 -22 30 26 c31 27 35 29 35 22z m89 -40 c-2 -2 -50 -38 -105
-79 -192 -142 -368 -318 -497 -496 -49 -67 -78 -100 -62 -71 32 58 180 235
285 340 104 104 354 310 377 310 3 0 4 -2 2 -4z m-159 -9 c0 -2 -38 -34 -84
-70 -357 -283 -652 -712 -795 -1157 -31 -99 -71 -249 -71 -271 0 -23 11 -1 17
33 2 18 9 35 14 36 5 2 7 8 3 13 -11 19 7 51 27 46 10 -3 17 -1 13 4 -3 5 0 9
5 9 6 0 11 -6 12 -12 1 -20 18 25 18 47 l0 20 -10 -20 c-8 -19 -9 -19 -6 -1 1
11 7 19 12 19 6 0 24 40 41 88 49 136 124 294 202 427 40 66 76 123 82 127 5
3 -20 -42 -55 -101 -160 -263 -268 -556 -320 -864 -25 -148 -31 -496 -11 -650
107 -812 587 -1497 1316 -1878 326 -171 648 -256 1016 -269 392 -13 755 68
1125 252 63 31 110 52 104 47 -12 -13 -189 -101 -270 -135 -228 -95 -485 -158
-717 -173 -54 -4 -98 -10 -98 -15 0 -4 10 -5 23 -2 19 4 18 2 -5 -12 -16 -8
-28 -20 -28 -25 0 -5 -28 -11 -62 -13 -35 -2 2 -3 82 0 326 9 653 88 963 231
48 23 87 39 87 36 0 -9 -190 -93 -304 -135 -133 -49 -331 -101 -481 -125 -157
-26 -555 -27 -708 -1 -558 94 -1022 331 -1412 722 -219 218 -358 414 -494 696
-288 595 -326 1262 -106 1899 80 232 261 553 426 756 87 107 245 264 354 352
88 70 95 76 95 69z m1720 -622 c117 -203 255 -444 308 -535 52 -91 97 -168 99
-172 2 -5 2 -8 -1 -8 -4 0 -119 195 -308 525 -41 72 -119 207 -173 300 -54 94
-109 189 -123 213 -13 23 -28 39 -34 36 -5 -3 -7 -13 -4 -21 3 -8 2 -12 -2 -9
-4 2 -33 -41 -65 -97 -32 -56 -75 -131 -96 -167 -21 -36 -73 -125 -115 -197
-43 -73 -80 -133 -83 -133 -3 0 4 15 14 33 10 17 95 164 188 325 93 160 172
289 176 285 4 -5 103 -174 219 -378z m1490 320 c19 -19 32 -35 29 -35 -3 0
-20 16 -39 35 -19 19 -32 35 -29 35 3 0 20 -16 39 -35z m-1694 -17 c4 -7 4
-10 -1 -6 -4 4 -15 2 -24 -5 -14 -11 -14 -10 -2 6 16 20 18 21 27 5z m1917
-106 c59 -74 117 -153 100 -137 -21 20 -186 230 -170 217 9 -8 40 -44 70 -80z
m-129 20 c25 -27 62 -71 81 -98 34 -46 34 -47 3 -9 -18 22 -57 66 -87 97 -30
32 -51 58 -48 58 3 0 27 -22 51 -48z m174 -220 c45 -66 60 -92 45 -77 -18 19
-103 146 -93 140 6 -3 27 -32 48 -63z m122 -29 c10 -18 18 -33 15 -33 -4 0
-55 74 -69 100 -13 25 33 -33 54 -67z m-29 -118 l10 -20 -16 20 c-9 11 -21 29
-26 40 l-10 20 16 -20 c9 -11 21 -29 26 -40z m79 35 c6 -11 8 -20 6 -20 -3 0
-10 9 -16 20 -6 11 -8 20 -6 20 3 0 10 -9 16 -20z m30 -50 c6 -11 8 -20 6 -20
-3 0 -10 9 -16 20 -6 11 -8 20 -6 20 3 0 10 -9 16 -20z m-65 -60 c9 -16 13
-30 11 -30 -3 0 -12 14 -21 30 -9 17 -13 30 -11 30 3 0 12 -13 21 -30z m-2525
-107 c-18 -32 -37 -62 -43 -68 -6 -5 1 10 15 35 14 25 31 55 37 68 6 12 14 22
17 22 3 0 -9 -26 -26 -57z m2699 -58 c0 -5 -13 15 -29 45 -16 30 -29 60 -29
65 0 6 13 -15 29 -45 16 -30 29 -59 29 -65z m-70 -50 c0 -5 -11 10 -24 35 -13
25 -24 50 -24 55 0 6 11 -10 24 -35 13 -25 24 -49 24 -55z m-2682 18 c-66
-116 -100 -173 -103 -173 -3 0 -3 3 -1 8 66 115 100 172 103 172 3 0 3 -3 1
-7z m2703 -68 c0 -5 -5 -3 -10 5 -5 8 -10 20 -10 25 0 6 5 3 10 -5 5 -8 10
-19 10 -25z m90 0 c0 -5 -5 -3 -10 5 -5 8 -10 20 -10 25 0 6 5 3 10 -5 5 -8
10 -19 10 -25z m-70 -50 c0 -5 -5 -3 -10 5 -5 8 -10 20 -10 25 0 6 5 3 10 -5
5 -8 10 -19 10 -25z m125 -111 c4 -25 3 -24 -8 6 -8 19 -17 46 -20 60 -5 19
-3 17 8 -6 7 -17 16 -44 20 -60z m-2970 16 c-9 -16 -18 -30 -21 -30 -2 0 2 14
11 30 9 17 18 30 21 30 2 0 -2 -13 -11 -30z m2884 -20 c0 -10 -3 -8 -9 5 -12
27 -12 43 0 25 5 -8 9 -22 9 -30z m-2912 -27 c-25 -43 -410 -714 -497 -866
-62 -108 -111 -200 -107 -203 3 -3 8 4 12 15 10 31 28 26 20 -6 -5 -22 -4 -25
8 -14 12 9 16 8 20 -4 4 -8 12 -12 20 -9 8 3 14 -1 14 -10 0 -8 -6 -12 -13 -9
-17 6 -29 -18 -13 -28 8 -5 21 -2 34 9 11 9 14 10 8 2 -16 -18 -17 -34 -1 -24
7 4 8 3 4 -4 -4 -7 -3 -12 3 -12 5 0 13 5 16 10 3 6 12 10 18 9 9 0 8 -2 -1
-6 -6 -2 -10 -8 -7 -13 3 -5 -11 -7 -30 -5 -19 2 -32 -1 -29 -6 3 -5 12 -9 20
-9 8 0 14 -4 14 -9 0 -5 7 -11 15 -15 8 -3 14 0 12 6 -1 6 4 12 11 14 7 1 8 0
3 -2 -13 -7 -2 -42 16 -48 10 -4 13 -2 10 8 -3 8 1 20 9 26 17 15 17 14 4 -28
-8 -29 -7 -32 5 -22 9 7 15 8 15 2 0 -11 -29 -37 -34 -31 -2 2 -8 12 -13 23
-9 16 -11 17 -16 2 -4 -10 -3 -15 2 -12 5 3 12 -1 15 -9 4 -11 14 -14 33 -9
22 4 25 3 13 -5 -12 -9 -11 -11 10 -12 14 0 19 -3 13 -6 -7 -2 -13 -9 -13 -14
0 -6 5 -7 10 -4 7 4 9 -3 6 -19 -3 -15 -1 -24 5 -21 5 4 8 9 5 13 -2 4 0 16 5
27 6 16 8 17 8 3 1 -9 6 -29 13 -45 6 -15 11 -31 10 -35 -1 -4 5 -5 14 -1 9 3
20 0 25 -8 5 -9 9 -9 9 -2 0 13 25 12 37 -2 4 -4 3 -5 -3 -2 -7 4 -17 0 -24
-8 -11 -13 -10 -14 3 -9 22 8 43 -32 26 -52 -6 -8 -10 -17 -7 -19 5 -5 42 57
308 515 100 173 187 320 193 325 14 15 2 -8 -130 -235 -65 -113 -228 -397
-363 -632 l-244 -427 -333 2 c-183 1 -333 4 -333 7 0 3 6 14 14 25 7 11 102
175 211 365 351 613 907 1570 912 1570 2 0 2 -3 0 -7z m-1762 -33 c3 -5 1 -10
-4 -10 -6 0 -11 5 -11 10 0 6 2 10 4 10 3 0 8 -4 11 -10z m4782 -22 c-3 -8 -6
-5 -6 6 -1 11 2 17 5 13 3 -3 4 -12 1 -19z m-1731 -55 c20 -38 44 -79 52 -93
l14 -25 -18 23 c-22 26 -98 162 -90 162 2 0 21 -30 42 -67z m1741 15 c-3 -8
-6 -5 -6 6 -1 11 2 17 5 13 3 -3 4 -12 1 -19z m-2478 -87 c-22 -39 -43 -71
-46 -71 -2 0 10 26 28 58 47 82 53 91 56 88 2 -2 -15 -35 -38 -75z m106 4 c16
-27 24 -45 18 -40 -6 6 -23 33 -38 60 -16 28 -24 46 -18 40 6 -5 23 -32 38
-60z m2382 43 c-3 -8 -6 -5 -6 6 -1 11 2 17 5 13 3 -3 4 -12 1 -19z m-80 -20
c-3 -8 -6 -5 -6 6 -1 11 2 17 5 13 3 -3 4 -12 1 -19z m90 -30 c-3 -7 -5 -2 -5
12 0 14 2 19 5 13 2 -7 2 -19 0 -25z m-80 -20 c-3 -7 -5 -2 -5 12 0 14 2 19 5
13 2 -7 2 -19 0 -25z m90 -30 c-3 -7 -5 -2 -5 12 0 14 2 19 5 13 2 -7 2 -19 0
-25z m-80 -10 c-3 -8 -6 -5 -6 6 -1 11 2 17 5 13 3 -3 4 -12 1 -19z m-2272
-18 c9 -16 13 -30 11 -30 -3 0 -12 14 -21 30 -9 17 -13 30 -11 30 3 0 12 -13
21 -30z m711 -72 c32 -57 66 -118 77 -135 10 -18 17 -33 14 -33 -3 0 -34 51
-70 113 -78 136 -89 157 -83 157 2 0 30 -46 62 -102z m-941 25 c-15 -27 -32
-52 -38 -58 -6 -5 2 13 18 40 15 28 30 53 32 58 2 4 7 7 10 7 2 0 -7 -21 -22
-47z m2512 5 c-3 -7 -5 -2 -5 12 0 14 2 19 5 13 2 -7 2 -19 0 -25z m-2247 -18
c6 -11 8 -20 6 -20 -3 0 -10 9 -16 20 -6 11 -8 20 -6 20 3 0 10 -9 16 -20z
m2337 -32 c-3 -7 -5 -2 -5 12 0 14 2 19 5 13 2 -7 2 -19 0 -25z m-80 -15 c-3
-10 -5 -4 -5 12 0 17 2 24 5 18 2 -7 2 -21 0 -30z m-2217 -23 c6 -11 8 -20 6
-20 -3 0 -10 9 -16 20 -6 11 -8 20 -6 20 3 0 10 -9 16 -20z m-385 -57 c-21
-38 -42 -72 -48 -78 -8 -8 21 49 70 138 2 4 7 7 9 7 3 0 -11 -30 -31 -67z
m2692 10 c-3 -10 -5 -2 -5 17 0 19 2 27 5 18 2 -10 2 -26 0 -35z m-80 -20 c-3
-10 -5 -2 -5 17 0 19 2 27 5 18 2 -10 2 -26 0 -35z m-2170 -28 c21 -42 1 -19
-26 30 -13 22 -15 31 -6 20 9 -11 23 -33 32 -50z m2260 -97 c-2 -18 -4 -4 -4
32 0 36 2 50 4 33 2 -18 2 -48 0 -65z m-80 15 c-2 -16 -4 -5 -4 22 0 28 2 40
4 28 2 -13 2 -35 0 -50z m-1482 27 c9 -16 13 -30 11 -30 -3 0 -12 14 -21 30
-9 17 -13 30 -11 30 3 0 12 -13 21 -30z m-1205 -20 c-6 -11 -13 -20 -16 -20
-2 0 0 9 6 20 6 11 13 20 16 20 2 0 0 -9 -6 -20z m550 0 c6 -11 8 -20 6 -20
-3 0 -10 9 -16 20 -6 11 -8 20 -6 20 3 0 10 -9 16 -20z m690 -40 c6 -11 8 -20
6 -20 -3 0 -10 9 -16 20 -6 11 -8 20 -6 20 3 0 10 -9 16 -20z m-1275 -20 c-9
-16 -18 -30 -21 -30 -2 0 2 14 11 30 9 17 18 30 21 30 2 0 -2 -13 -11 -30z
m640 -35 c16 -27 24 -45 18 -40 -6 6 -23 33 -38 60 -16 28 -24 46 -18 40 6 -5
23 -32 38 -60z m670 -5 c9 -16 13 -30 11 -30 -3 0 -12 14 -21 30 -9 17 -13 30
-11 30 3 0 12 -13 21 -30z m1492 -2 c-3 -7 -5 -2 -5 12 0 14 2 19 5 13 2 -7 2
-19 0 -25z m-2117 -68 c6 -11 8 -20 6 -20 -3 0 -10 9 -16 20 -6 11 -8 20 -6
20 3 0 10 -9 16 -20z m670 -10 c6 -11 8 -20 6 -20 -3 0 -10 9 -16 20 -6 11 -8
20 -6 20 3 0 10 -9 16 -20z m-635 -50 c9 -16 13 -30 11 -30 -3 0 -12 14 -21
30 -9 17 -13 30 -11 30 3 0 12 -13 21 -30z m684 -35 c13 -22 15 -31 6 -20 -18
22 -53 86 -38 70 6 -5 20 -28 32 -50z m1398 -37 c-2 -18 -4 -6 -4 27 0 33 2
48 4 33 2 -15 2 -42 0 -60z m-80 -10 c-2 -18 -4 -6 -4 27 0 33 2 48 4 33 2
-15 2 -42 0 -60z m-1967 22 c6 -11 8 -20 6 -20 -3 0 -10 9 -16 20 -6 11 -8 20
-6 20 3 0 10 -9 16 -20z m371 -63 l334 -2 -337 -3 -337 -2 -11 23 c-10 20 -10
20 3 5 13 -16 45 -18 348 -21z m1586 -54 c-3 -10 -5 -4 -5 12 0 17 2 24 5 18
2 -7 2 -21 0 -30z m80 -10 c-3 -10 -5 -2 -5 17 0 19 2 27 5 18 2 -10 2 -26 0
-35z m-2454 -43 c16 -28 26 -50 23 -50 -3 0 -12 12 -20 28 -32 57 -34 59 -51
37 -14 -19 -15 -18 -4 8 7 15 15 27 18 27 3 0 19 -23 34 -50z m-1173 15 c-14
-17 -30 -20 -30 -4 0 5 4 8 9 4 5 -3 12 -1 16 5 3 5 9 10 12 10 3 0 0 -7 -7
-15z m3537 -47 c-3 -7 -5 -2 -5 12 0 14 2 19 5 13 2 -7 2 -19 0 -25z m80 0
c-3 -7 -5 -2 -5 12 0 14 2 19 5 13 2 -7 2 -19 0 -25z m-2522 -8 c-9 -16 -18
-30 -21 -30 -2 0 2 14 11 30 9 17 18 30 21 30 2 0 -2 -13 -11 -30z m130 -50
c9 -16 13 -30 11 -30 -3 0 -12 14 -21 30 -9 17 -13 30 -11 30 3 0 12 -13 21
-30z m2302 -2 c-3 -7 -5 -2 -5 12 0 14 2 19 5 13 2 -7 2 -19 0 -25z m80 0 c-3
-8 -6 -5 -6 6 -1 11 2 17 5 13 3 -3 4 -12 1 -19z m-2540 5 c-2 -5 -93 -162
-201 -350 -108 -188 -194 -348 -193 -355 2 -7 2 -9 -1 -4 -2 4 -8 3 -12 -4 -5
-8 0 -20 12 -30 17 -13 18 -17 5 -17 -9 0 -14 4 -12 8 3 4 -2 9 -10 13 -18 6
-19 1 -5 -25 8 -14 7 -19 -2 -20 -7 -1 -2 -4 12 -8 14 -5 33 -4 44 2 12 6 16
6 12 -1 -4 -6 7 -13 26 -15 18 -3 -6 -4 -55 -3 -48 0 -87 -2 -87 -6 0 -5 204
-9 453 -10 l452 -3 -465 -5 c-256 -3 -466 -4 -468 -3 -2 1 4 13 13 27 10 14
22 23 28 19 6 -3 7 -1 3 6 -6 10 439 791 451 791 2 0 2 -3 0 -7z m-943 -50 c4
-9 1 -21 -5 -27 -9 -8 -10 -7 -6 5 3 9 0 22 -6 28 -8 8 -8 11 0 11 6 0 14 -8
17 -17z m46 13 c0 -2 -8 -10 -17 -17 -16 -13 -17 -12 -4 4 13 16 21 21 21 13z
m3347 -18 c-3 -8 -6 -5 -6 6 -1 11 2 17 5 13 3 -3 4 -12 1 -19z m-2227 -63
c18 -33 28 -55 23 -50 -6 6 -26 37 -44 70 -18 33 -28 56 -22 50 5 -5 25 -37
43 -70z m2307 43 c-3 -7 -5 -2 -5 12 0 14 2 19 5 13 2 -7 2 -19 0 -25z m-90
-30 c-3 -8 -6 -5 -6 6 -1 11 2 17 5 13 3 -3 4 -12 1 -19z m-3322 -28 c3 -5 -1
-10 -10 -10 -9 0 -13 5 -10 10 3 6 8 10 10 10 2 0 7 -4 10 -10z m3312 -12 c-3
-8 -6 -5 -6 6 -1 11 2 17 5 13 3 -3 4 -12 1 -19z m80 -20 c-3 -8 -6 -5 -6 6
-1 11 2 17 5 13 3 -3 4 -12 1 -19z m-3396 -5 c13 -16 12 -17 -3 -4 -10 7 -18
15 -18 17 0 8 8 3 21 -13z m37 -28 c-3 -3 -9 2 -12 12 -6 14 -5 15 5 6 7 -7
10 -15 7 -18z m1127 -15 c9 -16 13 -30 11 -30 -3 0 -12 14 -21 30 -9 17 -13
30 -11 30 3 0 12 -13 21 -30z m-1107 -33 c2 -9 -2 -17 -8 -17 -6 0 -8 5 -4 11
3 6 0 16 -7 21 -12 8 -11 9 1 5 8 -2 16 -11 18 -20z m1167 -72 c16 -27 24 -45
18 -40 -6 6 -23 33 -38 60 -16 28 -24 46 -18 40 6 -5 23 -32 38 -60z m-1072
-20 c-7 -21 -13 -19 -13 6 0 11 4 18 10 14 5 -3 7 -12 3 -20z m3177 -52 c-11
-17 -11 -17 -6 0 3 10 6 24 7 30 0 9 2 9 5 0 3 -7 0 -20 -6 -30z m-2050 -23
c6 -11 8 -20 6 -20 -3 0 -10 9 -16 20 -6 11 -8 20 -6 20 3 0 10 -9 16 -20z
m55 -95 c16 -27 24 -45 18 -40 -6 6 -23 33 -38 60 -16 28 -24 46 -18 40 6 -5
23 -32 38 -60z m45 -75 c6 -11 8 -20 6 -20 -3 0 -10 9 -16 20 -6 11 -8 20 -6
20 3 0 10 -9 16 -20z m1776 -17 c-8 -15 -15 -25 -16 -21 0 12 23 58 27 54 3
-2 -2 -17 -11 -33z m-1741 -43 c9 -16 13 -30 11 -30 -3 0 -12 14 -21 30 -9 17
-13 30 -11 30 3 0 12 -13 21 -30z m1806 -17 c-12 -20 -14 -14 -5 12 4 9 9 14
11 11 3 -2 0 -13 -6 -23z m-1766 -53 c9 -16 13 -30 11 -30 -3 0 -12 14 -21 30
-9 17 -13 30 -11 30 3 0 12 -13 21 -30z m1640 -10 c-9 -16 -18 -30 -21 -30 -2
0 2 14 11 30 9 17 18 30 21 30 2 0 -2 -13 -11 -30z m-1605 -50 c6 -11 8 -20 6
-20 -3 0 -10 9 -16 20 -6 11 -8 20 -6 20 3 0 10 -9 16 -20z m-970 -4 c0 -11
-19 -15 -25 -6 -3 5 1 10 9 10 9 0 16 -2 16 -4z m837 -52 c-3 -3 -12 -4 -19
-1 -8 3 -5 6 6 6 11 1 17 -2 13 -5z m76 -1 c-7 -2 -19 -2 -25 0 -7 3 -2 5 12
5 14 0 19 -2 13 -5z m1587 -23 c-6 -11 -13 -20 -16 -20 -2 0 0 9 6 20 6 11 13
20 16 20 2 0 0 -9 -6 -20z m-80 -124 c0 -2 -8 -10 -17 -17 -16 -13 -17 -12 -4
4 13 16 21 21 21 13z m-80 -106 c-17 -22 -37 -43 -43 -47 -6 -4 6 14 27 40 21
26 40 47 43 47 3 0 -10 -18 -27 -40z m120 16 c0 -2 -8 -10 -17 -17 -16 -13
-17 -12 -4 4 13 16 21 21 21 13z m-30 -40 c0 -2 -8 -10 -17 -17 -16 -13 -17
-12 -4 4 13 16 21 21 21 13z m-140 -39 c0 -2 -15 -16 -32 -33 l-33 -29 29 33
c28 30 36 37 36 29z m110 0 c0 -2 -10 -12 -22 -23 l-23 -19 19 23 c18 21 26
27 26 19z m-50 -60 c0 -2 -15 -16 -32 -33 l-33 -29 29 33 c28 30 36 37 36 29z
m-150 -40 c0 -1 -30 -32 -67 -67 l-68 -65 65 68 c60 62 70 72 70 64z m0 -122
c-41 -41 -77 -75 -79 -75 -3 0 28 34 69 75 41 41 77 75 79 75 3 0 -28 -34 -69
-75z m-150 -18 c0 -2 -15 -16 -32 -33 l-33 -29 29 33 c28 30 36 37 36 29z
m-106 -95 c-23 -20 -63 -52 -90 -70 -38 -26 -41 -27 -14 -5 19 15 57 47 85 70
62 52 74 55 19 5z m146 13 c-12 -13 -50 -45 -84 -70 -45 -35 -50 -37 -16 -8
24 21 60 53 80 70 42 39 53 43 20 8z m-298 -127 c-6 -7 -25 -22 -44 -32 -39
-23 -32 -13 14 20 38 26 45 29 30 12z m148 8 c0 -2 -8 -10 -17 -17 -16 -13
-17 -12 -4 4 13 16 21 21 21 13z m-40 -30 c0 -3 -15 -14 -32 -26 l-33 -22 30
26 c31 27 35 29 35 22z m-205 -42 c-24 -18 -83 -50 -73 -39 10 10 81 54 88 54
3 0 -4 -7 -15 -15z m85 -44 c-28 -21 -109 -67 -99 -56 9 10 113 75 119 76 3 0
-6 -9 -20 -20z m-110 -65 c0 -2 -18 -14 -40 -25 -22 -11 -40 -18 -40 -15 0 2
17 13 38 24 42 23 42 23 42 16z m-1083 -280 c0 -8 -4 -12 -9 -9 -4 3 -8 9 -8
15 0 5 4 9 8 9 5 0 9 -7 9 -15z m43 1 c0 -8 6 -17 13 -19 6 -3 0 -6 -15 -6
-22 -1 -28 4 -28 19 0 11 7 20 15 20 8 0 15 -6 15 -14z m30 4 c0 -5 -4 -10
-10 -10 -5 0 -10 5 -10 10 0 6 5 10 10 10 6 0 10 -4 10 -10z m-108 -33 c-12
-6 -25 -7 -29 -3 -11 10 18 25 35 18 13 -4 11 -8 -6 -15z m-1806 -684 c48
-115 163 -385 255 -600 l167 -393 -122 0 -121 0 -56 138 -57 137 -263 2 -264
3 -58 -140 -59 -140 -121 2 -122 2 120 6 120 5 27 70 c29 75 33 89 20 81 -5
-3 -8 9 -7 25 1 18 -4 32 -12 35 -7 2 -21 7 -30 11 -10 3 -21 6 -24 5 -9 -2
-7 32 3 45 6 8 4 10 -10 6 -11 -2 -29 0 -39 6 -18 9 -25 -2 -83 -135 -35 -79
-64 -143 -66 -141 -2 2 69 176 157 388 89 211 192 458 229 549 38 91 75 182
84 203 l16 37 114 0 114 0 88 -207z m1364 179 c36 -12 87 -39 114 -59 178
-137 182 -480 6 -635 -99 -88 -177 -108 -423 -108 l-178 0 3 -185 3 -185 -112
0 -113 0 0 601 0 601 318 -4 c292 -4 322 -6 382 -26z m1168 21 c-120 -2 -316
-2 -435 0 -120 1 -22 2 217 2 239 0 337 -1 218 -2z m624 0 l-133 -4 21 -29
c30 -42 18 -38 -14 5 l-27 35 143 -2 143 -2 -133 -3z m955 1 c-7 -7 -219 -5
-226 2 -2 2 49 4 114 4 65 0 116 -3 112 -6z m-267 -43 c-5 -11 -15 -23 -21
-27 -6 -3 -3 5 6 20 20 30 30 35 15 7z m-759 -48 c13 -16 12 -17 -3 -4 -10 7
-18 15 -18 17 0 8 8 3 21 -13z m50 -70 c13 -16 12 -17 -3 -4 -10 7 -18 15 -18
17 0 8 8 3 21 -13z m623 -8 c-9 -14 -18 -25 -21 -25 -5 0 5 18 20 38 17 22 18
13 1 -13z m-593 -32 c13 -16 12 -17 -3 -4 -10 7 -18 15 -18 17 0 8 8 3 21 -13z
m819 13 c0 -2 -8 -10 -17 -17 -16 -13 -17 -12 -4 4 13 16 21 21 21 13z m-1600
-316 l270 0 0 -85 0 -85 -270 0 -270 0 0 -165 0 -165 320 0 320 0 0 -95 0 -95
-437 2 -438 3 433 2 432 3 0 85 0 85 -317 2 -318 3 0 170 0 170 268 3 267 2 0
75 0 75 -267 2 -268 3 0 158 -1 157 3 -155 4 -155 269 0z m1560 261 c-5 -11
-15 -23 -21 -27 -6 -3 -3 5 6 20 20 30 30 35 15 7z m-260 -41 c-6 -11 -13 -20
-16 -20 -2 0 0 9 6 20 6 11 13 20 16 20 2 0 0 -9 -6 -20z m-122 -135 c-3 -3
-9 2 -12 12 -6 14 -5 15 5 6 7 -7 10 -15 7 -18z m232 -49 c0 -2 -8 -10 -17
-17 -16 -13 -17 -12 -4 4 13 16 21 21 21 13z m-400 -51 c14 -19 14 -19 -2 -6
-10 7 -18 18 -18 24 0 6 1 8 3 6 1 -2 9 -13 17 -24z m40 -55 c0 -4 -9 -18 -21
-31 l-20 -24 17 28 c14 23 14 30 3 45 -13 15 -12 16 4 3 9 -7 17 -17 17 -21z
m311 -57 c13 -16 12 -17 -3 -4 -10 7 -18 15 -18 17 0 8 8 3 21 -13z m-351 -7
c0 -2 -8 -10 -17 -17 -16 -13 -17 -12 -4 4 13 16 21 21 21 13z m-1495 -16 c3
-5 1 -10 -4 -10 -6 0 -11 5 -11 10 0 6 2 10 4 10 3 0 8 -4 11 -10z m1896 -47
c13 -16 12 -17 -3 -4 -10 7 -18 15 -18 17 0 8 8 3 21 -13z m-451 -7 c0 -2 -8
-10 -17 -17 -16 -13 -17 -12 -4 4 13 16 21 21 21 13z m-71 -97 c-24 -33 -47
-63 -53 -67 -6 -3 1 10 15 29 14 18 35 49 48 67 12 17 25 32 27 32 3 0 -14
-27 -37 -61z m281 57 c0 -2 -8 -10 -17 -17 -16 -13 -17 -12 -4 4 13 16 21 21
21 13z m-50 -66 c-12 -16 -24 -30 -26 -30 -3 0 4 14 16 30 12 17 24 30 26 30
3 0 -4 -13 -16 -30z m131 -7 c13 -16 12 -17 -3 -4 -10 7 -18 15 -18 17 0 8 8
3 21 -13z m250 -10 c13 -16 12 -17 -3 -4 -10 7 -18 15 -18 17 0 8 8 3 21 -13z
m-431 -53 c-12 -16 -24 -30 -26 -30 -3 0 4 14 16 30 12 17 24 30 26 30 3 0 -4
-13 -16 -30z m231 -7 c13 -16 12 -17 -3 -4 -17 13 -22 21 -14 21 2 0 10 -8 17
-17z m-491 -23 c-12 -16 -24 -30 -26 -30 -3 0 4 14 16 30 12 17 24 30 26 30 3
0 -4 -13 -16 -30z m750 0 c12 -16 19 -30 16 -30 -2 0 -14 14 -26 30 -12 17
-19 30 -16 30 2 0 14 -13 26 -30z m-4575 -10 c-3 -5 -11 -10 -16 -10 -6 0 -7
5 -4 10 3 6 11 10 16 10 6 0 7 -4 4 -10z m3775 -60 c-12 -16 -24 -30 -26 -30
-3 0 4 14 16 30 12 17 24 30 26 30 3 0 -4 -13 -16 -30z m260 26 c0 -2 -8 -10
-17 -17 -16 -13 -17 -12 -4 4 13 16 21 21 21 13z m341 -13 c13 -16 12 -17 -3
-4 -10 7 -18 15 -18 17 0 8 8 3 21 -13z m-411 -81 c-23 -32 -53 -72 -67 -88
-24 -28 24 45 75 114 42 55 35 35 -8 -26z m461 11 c13 -16 12 -17 -3 -4 -10 7
-18 15 -18 17 0 8 8 3 21 -13z m-721 -43 c-12 -16 -24 -30 -26 -30 -3 0 4 14
16 30 12 17 24 30 26 30 3 0 -4 -13 -16 -30z m981 13 c13 -16 12 -17 -3 -4
-10 7 -18 15 -18 17 0 8 8 3 21 -13z m-230 -10 c13 -16 12 -17 -3 -4 -10 7
-18 15 -18 17 0 8 8 3 21 -13z m70 -100 c13 -16 12 -17 -3 -4 -17 13 -22 21
-14 21 2 0 10 -8 17 -17z m239 2 c7 -9 8 -15 2 -15 -5 0 -12 7 -16 15 -3 8 -4
15 -2 15 2 0 9 -7 16 -15z m-895 -5 c-4 -6 -55 -9 -128 -8 l-122 2 125 6 c69
3 126 7 128 8 2 1 0 -2 -3 -8z m-3059 -370 c116 -57 160 -225 89 -345 -97
-167 -374 -140 -436 42 -20 59 -16 151 9 199 27 52 92 109 140 123 54 15 145
6 198 -19z m1891 15 c95 -28 165 -130 162 -234 -1 -28 -3 -23 -10 21 -20 138
-101 211 -234 211 -75 1 -141 -29 -186 -81 -17 -21 -26 -28 -21 -17 13 25 60
69 91 85 64 33 123 37 198 15z m-2738 -121 c40 -68 72 -127 70 -129 -3 -2 -38
52 -78 121 -71 121 -74 124 -107 124 l-35 0 3 -230 c2 -127 0 -230 -4 -230 -5
0 -8 106 -8 235 l0 235 43 0 42 0 74 -126z m321 -109 l0 -235 -27 1 c-24 2
-25 2 -5 6 l22 4 0 225 0 225 -32 -3 c-28 -3 -38 -14 -103 -121 -40 -65 -78
-124 -86 -130 -8 -8 -8 -3 2 13 9 14 46 76 83 138 l67 112 40 0 39 0 0 -235z
m983 102 c54 -73 109 -145 123 -162 l24 -30 0 163 0 162 38 0 37 0 -2 -82 c-1
-46 -2 -152 -3 -235 l0 -153 -32 0 c-31 0 -41 11 -151 156 -65 86 -121 168
-123 182 -4 20 -2 23 8 15 7 -6 21 -9 31 -8 9 2 17 0 18 -3 0 -4 2 -15 4 -24
3 -16 1 -17 -18 -3 -12 8 -25 15 -29 15 -5 0 46 -72 112 -160 99 -131 125
-160 145 -160 l25 0 0 225 0 225 -25 0 -25 0 0 -154 c0 -90 -4 -157 -10 -161
-10 -6 -12 -5 -91 95 -29 36 -56 64 -61 62 -5 -1 -7 1 -4 6 8 13 -24 53 -36
46 -7 -5 -9 -1 -5 8 6 16 -21 48 -39 48 -5 0 -1 -5 9 -11 9 -5 17 -17 17 -24
0 -17 -5 -18 -29 -6 -13 7 -17 5 -17 -10 0 -10 3 -19 6 -19 3 0 4 -76 2 -170
l-3 -170 -39 0 -40 0 0 235 0 235 43 -1 42 0 98 -132z m479 -102 l-3 -235 -34
0 -35 0 0 235 0 235 38 0 37 0 -3 -235z m528 200 l0 -35 -79 0 -79 0 -1 -91
c0 -50 -3 -94 -6 -97 -3 -3 -4 39 -3 93 l3 100 78 3 c74 3 77 4 77 27 l0 25
-175 0 -175 0 0 -25 c0 -24 2 -25 70 -25 l70 0 -2 -207 -3 -208 -2 203 -3 202
-73 0 -73 0 1 35 0 35 188 0 187 0 0 -35z m1039 6 c85 -61 80 -210 -9 -256
-16 -8 -30 -13 -30 -11 0 3 13 12 30 21 57 30 78 120 43 192 -26 55 -75 73
-205 73 l-107 0 -3 -132 -3 -133 -5 138 -5 139 130 -4 c118 -3 133 -5 164 -27z
m311 -206 l0 -235 -27 1 c-24 2 -25 2 -5 6 l22 4 0 224 0 224 -37 4 -38 4 43
1 42 2 0 -235z m285 198 l26 -38 -28 32 c-21 23 -39 33 -68 36 l-40 4 41 1
c37 2 44 -2 69 -35z m293 -200 l-3 -238 -2 232 -3 232 -38 4 -37 4 43 1 42 2
-2 -237z m339 231 c-3 -3 -12 -4 -19 -1 -8 3 -5 6 6 6 11 1 17 -2 13 -5z m126
-1 c-7 -2 -19 -2 -25 0 -7 3 -2 5 12 5 14 0 19 -2 13 -5z m65 -23 c37 -23 39
-30 12 -55 -11 -10 -20 -13 -20 -8 0 6 7 13 15 17 25 9 17 24 -22 45 -21 11
-33 20 -28 21 6 0 25 -9 43 -20z m-3268 -15 c0 -22 -2 -24 -14 -13 -10 9 -11
17 -4 26 15 17 18 15 18 -13z m3000 11 c0 -2 -8 -10 -17 -17 -16 -13 -17 -12
-4 4 13 16 21 21 21 13z m-1753 -48 c42 -25 73 -91 73 -154 0 -27 -4 -55 -9
-62 -4 -7 -6 11 -3 41 6 71 -11 119 -54 157 -30 26 -42 30 -92 30 -99 0 -160
-62 -164 -167 -1 -47 -1 -48 -5 -8 -15 143 131 237 254 163z m537 12 c56 -21
71 -115 25 -156 -17 -15 -37 -19 -103 -19 l-81 0 -3 79 c-2 44 -1 85 2 93 6
16 121 18 160 3z m1303 -4 c-21 -8 -48 -22 -59 -33 -12 -10 -18 -12 -14 -5 12
20 68 52 91 52 12 -1 4 -6 -18 -14z m86 7 c-7 -2 -19 -2 -25 0 -7 3 -2 5 12 5
14 0 19 -2 13 -5z m58 -24 l24 -20 -30 17 c-39 24 -40 24 -28 24 6 0 21 -9 34
-21z m-740 -6 c13 -16 12 -17 -3 -4 -17 13 -22 21 -14 21 2 0 10 -8 17 -17z
m441 -23 c-9 -21 -18 -35 -20 -30 -3 9 25 70 33 70 2 0 -4 -18 -13 -40z m-411
-17 c13 -16 12 -17 -3 -4 -17 13 -22 21 -14 21 2 0 10 -8 17 -17z m-1591 -33
c-5 -22 -8 -27 -9 -13 -1 21 9 56 14 51 2 -2 0 -19 -5 -38z m2073 25 c-3 -9
-8 -14 -10 -11 -3 3 -2 9 2 15 9 16 15 13 8 -4z m-4498 -115 c37 -62 66 -100
76 -100 10 0 43 41 84 105 61 97 93 137 64 83 -40 -76 -132 -198 -148 -198
-13 0 -40 34 -87 108 l-69 107 -5 -160 -6 -160 -2 156 c-1 86 1 158 4 162 13
13 32 -8 89 -103z m3912 -132 c-1 -46 -3 -9 -3 82 0 91 2 128 3 83 2 -46 2
-120 0 -165z m43 217 c14 -19 14 -19 -2 -6 -10 7 -18 18 -18 24 0 6 1 8 3 6 1
-2 9 -13 17 -24z m-3703 -182 c-2 -38 -3 -7 -3 67 0 74 1 105 3 68 2 -38 2
-98 0 -135z m3794 180 c13 -16 12 -17 -3 -4 -17 13 -22 21 -14 21 2 0 10 -8
17 -17z m356 -90 c-2 -21 -4 -6 -4 32 0 39 2 55 4 38 2 -18 2 -50 0 -70z m80
75 c-3 -8 -6 -5 -6 6 -1 11 2 17 5 13 3 -3 4 -12 1 -19z m-462 -68 c25 -33 44
-60 41 -60 -3 0 -26 27 -51 60 -25 33 -44 60 -41 60 3 0 26 -27 51 -60z m94
-5 c47 -65 31 -56 -20 13 -23 31 -36 52 -28 45 8 -7 30 -33 48 -58z m-1696 0
c4 -34 3 -42 -3 -25 -8 25 -13 87 -6 79 2 -2 6 -26 9 -54z m2384 -92 c-2 -27
-3 -5 -3 47 0 52 1 74 3 48 2 -27 2 -69 0 -95z m-330 105 c-3 -8 -6 -5 -6 6
-1 11 2 17 5 13 3 -3 4 -12 1 -19z m216 -31 l42 -4 -47 -1 c-44 -2 -48 0 -47
21 1 16 3 17 6 5 3 -12 17 -18 46 -21z m-2546 -19 c-3 -7 -5 -2 -5 12 0 14 2
19 5 13 2 -7 2 -19 0 -25z m727 -40 c-19 -39 -61 -86 -89 -100 -11 -5 -3 4 18
22 38 32 76 94 78 127 1 16 2 16 6 1 2 -9 -3 -32 -13 -50z m1659 -28 l22 -25
-24 20 c-25 22 -51 66 -51 87 1 7 8 -3 16 -22 8 -19 25 -46 37 -60z m-1289 43
c17 -28 17 -28 -2 -6 -13 14 -34 23 -63 26 l-44 4 46 1 c41 2 49 -1 63 -25z
m1503 -25 c-2 -13 -4 -5 -4 17 -1 22 1 32 4 23 2 -10 2 -28 0 -40z m-1620 -80
c-2 -24 -4 -5 -4 42 0 47 2 66 4 43 2 -24 2 -62 0 -85z m266 15 l38 -53 -48 0
c-47 0 -49 1 -86 58 -21 31 -28 44 -15 28 60 -76 62 -78 96 -74 l33 3 -41 55
c-23 30 -46 64 -51 75 -11 22 17 -12 74 -92z m698 70 c13 -16 12 -17 -3 -4
-17 13 -22 21 -14 21 2 0 10 -8 17 -17z m-1546 -13 c10 -11 16 -20 13 -20 -3
0 -13 9 -23 20 -10 11 -16 20 -13 20 3 0 13 -9 23 -20z m229 -1 c-30 -34 -70
-49 -121 -48 l-48 2 55 6 c58 7 88 19 110 45 7 9 15 16 18 16 3 0 -3 -9 -14
-21z m1732 -75 c21 -13 35 -24 30 -24 -32 0 -116 84 -116 116 0 5 11 -9 24
-30 13 -21 41 -49 62 -62z m-1956 -9 c12 -4 19 -9 17 -12 -9 -8 -62 25 -92 58
-30 33 -30 33 11 -3 23 -20 52 -39 64 -43z m1571 58 c13 -16 12 -17 -3 -4 -10
7 -18 15 -18 17 0 8 8 3 21 -13z m-1526 -11 c-3 -3 -11 0 -18 7 -9 10 -8 11 6
5 10 -3 15 -9 12 -12z m2130 8 c-3 -5 -12 -10 -18 -10 -7 0 -6 4 3 10 19 12
23 12 15 0z m-57 -17 c-16 -2 -40 -2 -55 0 -16 2 -3 4 27 4 30 0 43 -2 28 -4z
m-517 -20 c13 -16 12 -17 -3 -4 -17 13 -22 21 -14 21 2 0 10 -8 17 -17z m659
12 c0 -7 -63 -45 -75 -45 -5 0 8 11 30 24 47 28 45 27 45 21z m-2660 -45 c0
-5 -12 -10 -27 -9 l-28 1 25 8 c14 4 26 8 28 9 1 1 2 -3 2 -9z m2035 -8 c-3
-3 -11 0 -18 7 -9 10 -8 11 6 5 10 -3 15 -9 12 -12z m-1572 1 c-7 -2 -19 -2
-25 0 -7 3 -2 5 12 5 14 0 19 -2 13 -5z m114 1 c-3 -3 -12 -4 -19 -1 -8 3 -5
6 6 6 11 1 17 -2 13 -5z m1856 -1 c-7 -2 -19 -2 -25 0 -7 3 -2 5 12 5 14 0 19
-2 13 -5z m130 0 c-7 -2 -21 -2 -30 0 -10 3 -4 5 12 5 17 0 24 -2 18 -5z
m-2046 -9 c-3 -3 -12 -4 -19 -1 -8 3 -5 6 6 6 11 1 17 -2 13 -5z"/>
<path d="M2730 7014 c0 -13 3 -14 13 -5 11 8 13 4 9 -22 -6 -41 3 -33 11 11 6
27 4 32 -13 32 -12 0 -20 -7 -20 -16z"/>
<path d="M2741 6934 c0 -11 3 -14 6 -6 3 7 2 16 -1 19 -3 4 -6 -2 -5 -13z"/>
<path d="M2705 6919 c-4 -6 -5 -12 -2 -15 2 -3 7 2 10 11 7 17 1 20 -8 4z"/>
<path d="M2672 6880 c0 -14 2 -19 5 -12 2 6 2 18 0 25 -3 6 -5 1 -5 -13z"/>
<path d="M2731 6884 c0 -11 3 -14 6 -6 3 7 2 16 -1 19 -3 4 -6 -2 -5 -13z"/>
<path d="M2662 6820 c0 -19 2 -27 5 -17 2 9 2 25 0 35 -3 9 -5 1 -5 -18z"/>
<path d="M2712 6775 c0 -16 2 -22 5 -12 2 9 2 23 0 30 -3 6 -5 -1 -5 -18z"/>
<path d="M2652 6760 c0 -14 2 -19 5 -12 2 6 2 18 0 25 -3 6 -5 1 -5 -13z"/>
<path d="M2702 6695 c0 -16 2 -22 5 -12 2 9 2 23 0 30 -3 6 -5 -1 -5 -18z"/>
<path d="M2641 6684 c0 -11 3 -14 6 -6 3 7 2 16 -1 19 -3 4 -6 -2 -5 -13z"/>
<path d="M2631 6584 c0 -11 3 -14 6 -6 3 7 2 16 -1 19 -3 4 -6 -2 -5 -13z"/>
<path d="M2631 6534 c0 -11 3 -14 6 -6 3 7 2 16 -1 19 -3 4 -6 -2 -5 -13z"/>
<path d="M4978 3973 c7 -3 16 -2 19 1 4 3 -2 6 -13 5 -11 0 -14 -3 -6 -6z"/>
<path d="M4808 3933 c7 -3 16 -2 19 1 4 3 -2 6 -13 5 -11 0 -14 -3 -6 -6z"/>
<path d="M4913 3923 c9 -2 23 -2 30 0 6 3 -1 5 -18 5 -16 0 -22 -2 -12 -5z"/>
<path d="M5028 3913 c7 -3 16 -2 19 1 4 3 -2 6 -13 5 -11 0 -14 -3 -6 -6z"/>
<path d="M3886 6013 c-6 -14 -5 -15 5 -6 7 7 10 15 7 18 -3 3 -9 -2 -12 -12z"/>
<path d="M4040 5810 c0 -5 5 -10 11 -10 5 0 7 5 4 10 -3 6 -8 10 -11 10 -2 0
-4 -4 -4 -10z"/>
<path d="M4120 5776 c0 -8 4 -17 9 -20 5 -4 7 3 4 14 -6 23 -13 26 -13 6z"/>
<path d="M4258 5643 c7 -3 16 -2 19 1 4 3 -2 6 -13 5 -11 0 -14 -3 -6 -6z"/>
<path d="M3206 3176 c-5 -19 -147 -385 -173 -443 -4 -10 37 -13 187 -13 150 0
191 3 187 13 -102 258 -182 454 -187 460 -4 5 -10 -3 -14 -17z"/>
<path d="M2796 2665 c-9 -26 -7 -32 5 -12 6 10 9 21 6 23 -2 3 -7 -2 -11 -11z"/>
<path d="M2766 2594 c-8 -21 -8 -39 1 -31 3 4 13 1 22 -5 11 -9 10 -6 -2 9
-13 15 -15 22 -6 25 9 3 10 6 2 11 -6 4 -14 0 -17 -9z"/>
<path d="M2826 2521 c-4 -5 4 -15 16 -22 22 -12 22 -11 8 7 -8 10 -15 20 -16
22 -1 2 -5 -1 -8 -7z"/>
<path d="M2902 2443 c-1 -22 0 -24 8 -13 12 18 13 40 2 40 -4 0 -9 -12 -10
-27z"/>
<path d="M3663 2263 c15 -2 39 -2 55 0 15 2 2 4 -28 4 -30 0 -43 -2 -27 -4z"/>
<path d="M3763 2263 c9 -2 23 -2 30 0 6 3 -1 5 -18 5 -16 0 -22 -2 -12 -5z"/>
<path d="M4458 3433 c7 -3 16 -2 19 1 4 3 -2 6 -13 5 -11 0 -14 -3 -6 -6z"/>
<path d="M4575 3430 c3 -5 10 -10 16 -10 5 0 9 5 9 10 0 6 -7 10 -16 10 -8 0
-12 -4 -9 -10z"/>
<path d="M4614 3422 c4 -6 13 -9 21 -5 10 3 15 -1 15 -12 0 -10 5 -13 12 -9 7
5 8 3 2 -7 -4 -8 -10 -23 -11 -34 -2 -16 -1 -17 6 -5 5 8 7 18 5 22 -3 4 2 5
11 1 9 -3 12 -9 7 -12 -6 -3 -12 -15 -14 -26 -3 -20 0 -22 55 -24 24 -1 26 -3
17 -21 -7 -14 -7 -20 0 -20 5 0 10 -9 10 -21 0 -15 -5 -19 -15 -15 -22 8 -18
2 13 -21 21 -15 29 -17 29 -8 0 8 -4 12 -8 9 -4 -2 -10 0 -14 6 -3 5 -2 10 3
10 5 0 9 10 8 23 -1 17 4 21 19 19 11 -2 25 -4 32 -4 7 -1 10 -5 7 -10 -3 -5
-10 -6 -15 -3 -13 9 -11 -7 4 -26 7 -9 18 -14 25 -12 6 3 12 0 12 -7 0 -6 -4
-9 -9 -6 -4 3 -18 -3 -30 -13 -21 -18 -21 -21 -8 -48 l15 -28 -1 35 c-2 24 3
35 14 38 12 2 16 -3 14 -21 -2 -20 2 -24 21 -24 29 0 66 -31 56 -47 -3 -6 -7
-18 -7 -26 0 -8 -4 -21 -8 -28 -5 -8 -4 -11 4 -10 6 2 14 -3 17 -11 3 -8 0
-11 -7 -7 -6 4 -11 5 -11 1 0 -3 12 -10 26 -15 18 -7 24 -15 20 -26 -4 -12 -2
-15 9 -10 14 5 20 -5 16 -27 -1 -5 3 -6 9 -2 6 4 8 -6 5 -27 l-5 -33 17 35
c27 55 24 227 -7 305 -31 80 -105 154 -185 185 -65 25 -213 41 -201 22z m81
-81 c3 -5 1 -12 -5 -16 -5 -3 -10 1 -10 9 0 18 6 21 15 7z m242 -281 c1 -11
-2 -20 -7 -20 -6 0 -7 17 -1 38 3 8 7 -1 8 -18z m40 -45 c0 -8 -6 -15 -13 -15
-8 0 -11 6 -8 15 4 8 9 15 13 15 4 0 8 -7 8 -15z m34 -18 c-10 -9 -11 -8 -5 6
3 10 9 15 12 12 3 -3 0 -11 -7 -18z"/>
<path d="M4640 3270 c-23 -7 -23 -8 -3 -9 12 -1 25 4 28 9 3 6 5 10 3 9 -2 -1
-14 -5 -28 -9z"/>
<path d="M4310 3029 l0 -221 173 4 c192 4 226 13 282 79 37 45 46 73 46 145 0
101 -49 172 -140 203 -20 6 -102 11 -197 11 l-164 0 0 -221z"/>
<path d="M4851 3127 c-8 -10 -7 -14 4 -14 8 0 15 6 15 14 0 7 -2 13 -4 13 -2
0 -9 -6 -15 -13z"/>
<path d="M4889 3128 c-11 -46 -3 -62 19 -35 7 8 6 16 -4 25 -8 7 -14 11 -15
10z"/>
<path d="M4820 3094 c0 -8 5 -12 10 -9 6 4 8 11 5 16 -9 14 -15 11 -15 -7z"/>
<path d="M4832 3035 c0 -16 2 -22 5 -12 2 9 2 23 0 30 -3 6 -5 -1 -5 -18z"/>
<path d="M4961 2906 c-9 -11 -9 -16 1 -22 7 -4 10 -4 6 1 -4 4 -3 14 3 22 6 7
9 13 6 13 -2 0 -10 -6 -16 -14z"/>
<path d="M4976 2855 c-9 -26 -7 -32 5 -12 6 10 9 21 6 23 -2 3 -7 -2 -11 -11z"/>
<path d="M4101 2504 c0 -11 3 -14 6 -6 3 7 2 16 -1 19 -3 4 -6 -2 -5 -13z"/>
<path d="M4292 2420 c0 -14 2 -19 5 -12 2 6 2 18 0 25 -3 6 -5 1 -5 -13z"/>
<path d="M4102 2328 l-2 -68 100 0 100 0 -2 68 -2 67 -3 -62 -4 -63 -89 0 -89
0 -4 63 -3 62 -2 -67z"/>
<path d="M3445 1901 c-53 -9 -105 -38 -105 -57 0 -8 4 -13 9 -9 5 3 12 1 16
-5 3 -5 -1 -10 -9 -10 -27 0 -31 2 -28 11 1 5 -2 9 -6 9 -5 0 -21 -22 -35 -49
-22 -39 -27 -62 -27 -117 1 -146 80 -225 226 -225 67 0 125 19 162 54 49 46
79 137 67 206 -5 32 -10 37 -33 36 -21 0 -28 -6 -30 -24 -3 -16 0 -21 9 -15 9
5 10 2 5 -12 -4 -10 -12 -41 -18 -67 -19 -91 -90 -136 -194 -124 -118 13 -173
170 -101 284 15 23 22 45 17 48 -5 3 -7 12 -4 20 4 8 10 12 15 9 5 -3 9 0 9 6
0 6 5 8 10 5 6 -3 10 -1 10 5 0 8 15 11 45 8 29 -2 46 1 50 9 5 14 1 14 -60 4z"/>
<path d="M3516 1891 c-3 -4 7 -6 22 -4 24 3 25 2 7 -7 -17 -9 -16 -9 9 -5 33
7 112 -38 100 -57 -5 -7 -3 -8 5 -4 17 11 -11 40 -63 66 -45 21 -72 25 -80 11z"/>
<path d="M3444 1872 c3 -6 2 -12 -4 -14 -5 -1 17 -3 50 -3 46 -1 66 -6 92 -25
31 -22 32 -22 14 -2 -24 28 -168 69 -152 44z"/>
<path d="M3408 1825 c-66 -36 -95 -148 -60 -228 27 -60 70 -87 138 -87 93 0
154 65 154 165 0 99 -62 165 -154 165 -28 -1 -63 -7 -78 -15z"/>
<path d="M3633 1793 c9 -2 17 -9 17 -14 0 -6 -4 -8 -9 -5 -5 4 -6 -4 -3 -16 5
-20 7 -20 10 -5 3 14 10 17 28 13 14 -4 24 -2 24 4 0 5 -9 10 -19 10 -11 0
-23 5 -26 10 -3 6 -14 9 -23 9 -15 -1 -15 -2 1 -6z"/>
<path d="M3900 1890 c0 -6 11 -8 28 -4 39 10 40 14 4 14 -18 0 -32 -5 -32 -10z"/>
<path d="M3944 1872 c4 -3 14 -7 22 -8 9 -1 13 0 10 4 -4 3 -14 7 -22 8 -9 1
-13 0 -10 -4z"/>
<path d="M3898 1693 c-1 -95 -2 -188 -2 -205 -1 -29 3 -33 27 -36 l27 -3 0
151 c0 107 -3 149 -11 144 -8 -4 -8 0 0 15 10 19 8 24 -9 23 -3 0 -7 11 -8 25
-1 13 -6 32 -12 41 -6 12 -10 -38 -12 -155z"/>
<path d="M4480 1675 l0 -225 25 0 25 0 0 225 0 225 -25 0 -25 0 0 -225z"/>
<path d="M5890 1755 l0 -85 65 0 c75 0 108 13 124 47 18 39 13 63 -18 94 -27
27 -35 29 -100 29 l-71 0 0 -85z"/>
</g>
</svg>
